<?xml version="1.0" standalone="no"?><svg xmlns:xlink="http://www.w3.org/1999/xlink" xmlns="http://www.w3.org/2000/svg" viewBox="0 0 1000 500" preserveAspectRatio="xMaxYMax slice"><g transform="scale(0.6821282401091405)"><rect x="0" y="0" width="1466" height="733" fill="#ffffff"/><rect x="0" y="0" width="81.44" height="81.44" fill="#b2bff5"/><polygon points="81.44,0 81.44,81.44 0,81.44" fill="#4766e7"/><rect x="81.44444444444444" y="0" width="81.44444444444444" height="81.44444444444444" fill="#ffffff"/><rect x="81.44" y="0" width="40.72" height="40.72" fill="#f8f9fe"/><path d="M 81.44 40.72 A 40.72 40.72 0 0 0 122.16 0 L 81.44 0L81.44 40.72" fill="#7e93ee"/><rect x="122.17" y="0" width="40.72" height="40.72" fill="#fafafa"/><path d="M 122.17 0 A 40.72 40.72 0 0 0 162.89 40.72 L 162.89 0L122.17 0" fill="#fefefe"/><rect x="81.44" y="40.72" width="40.72" height="40.72" fill="#5471e9"/><path d="M 81.44 40.72 A 40.72 40.72 0 0 1 122.16 81.44 L 81.44 81.44L81.44 40.72" fill="#fdfdfd"/><rect x="122.17" y="40.72" width="40.72" height="40.72" fill="#6a83ec"/><path d="M 122.17 81.44 A 40.72 40.72 0 0 1  162.89 40.72 L 162.89 81.44L122.17 81.44" fill="#fbfbfb"/><rect x="162.88888888888889" y="0" width="81.44444444444444" height="81.44444444444444" fill="#ffffff"/><rect x="162.89" y="0" width="40.72" height="40.72" fill="#fbfbfb"/><path d="M 162.89 40.72 A 40.72 40.72 0 0 1  203.60999999999999 0 L 203.60999999999999 40.72L162.89 40.72" fill="#fbfbfb"/><rect x="203.61" y="0" width="40.72" height="40.72" fill="#fbfbfb"/><path d="M 203.61 0 A 40.72 40.72 0 0 1 244.33 40.72 L 203.61 40.72L203.61 0" fill="#fcfcfc"/><rect x="162.89" y="40.72" width="40.72" height="40.72" fill="#fdfdfd"/><path d="M 162.89 40.72 A 40.72 40.72 0 0 0 203.60999999999999 81.44 L 203.60999999999999 40.72L162.89 40.72" fill="#fdfdfd"/><rect x="203.61" y="40.72" width="40.72" height="40.72" fill="#fbfbfb"/><path d="M 203.61 81.44 A 40.72 40.72 0 0 0 244.33 40.72 L 203.61 40.72L203.61 81.44" fill="#fdfdfd"/><rect x="244.33" y="0" width="81.44" height="81.44" fill="#dde3fb"/><rect x="244.33" y="0" width="81.44" height="81.44" fill="#fdfdff"/><rect x="325.78" y="0" width="81.44" height="81.44" fill="#fbfbfb"/><path d="M 325.78 81.44 A 81.44 81.44 0 0 0 407.21999999999997 0 L 325.78 0L325.78 81.44" fill="#cdd5f8"/><rect x="407.22" y="0" width="81.44" height="81.44" fill="#fbfbfb"/><path d="M 407.22 81.44 A 81.44 81.44 0 0 1  488.66 0 L 488.66 81.44L407.22 81.44" fill="#cad3f8"/><rect x="488.67" y="0" width="81.44" height="81.44" fill="#8a9ef0"/><rect x="488.67" y="0" width="81.44" height="81.44" fill="#fcfcfc"/><rect x="570.11" y="0" width="81.44" height="81.44" fill="#fdfdfd"/><rect x="570.11" y="0" width="81.44" height="81.44" fill="#d7ddfa"/><rect x="651.5555555555555" y="0" width="81.44444444444444" height="81.44444444444444" fill="#ffffff"/><rect x="651.56" y="0" width="40.72" height="40.72" fill="#bfcaf7"/><path d="M 651.56 0 A 40.72 40.72 0 0 1 692.28 40.72 L 651.56 40.72L651.56 0" fill="#3456e5"/><rect x="692.28" y="0" width="40.72" height="40.72" fill="#b7c3f6"/><path d="M 692.28 40.72 A 40.72 40.72 0 0 1  733 0 L 733 40.72L692.28 40.72" fill="#eaeefc"/><rect x="651.56" y="40.72" width="40.72" height="40.72" fill="#fbfbfb"/><path d="M 651.56 81.44 A 40.72 40.72 0 0 0 692.28 40.72 L 651.56 40.72L651.56 81.44" fill="#a0b0f3"/><rect x="692.28" y="40.72" width="40.72" height="40.72" fill="#6f87ec"/><path d="M 692.28 40.72 A 40.72 40.72 0 0 0 733 81.44 L 733 40.72L692.28 40.72" fill="#b9c5f6"/><rect x="733" y="0" width="81.44" height="81.44" fill="#1c42e1"/><rect x="733" y="0" width="81.44" height="81.44" fill="#fefefe"/><rect x="814.4444444444445" y="0" width="81.44444444444444" height="81.44444444444444" fill="#ffffff"/><rect x="814.44" y="0" width="40.72" height="40.72" fill="#fefefe"/><circle cx="834.8000000000001" cy="20.36" r="20.36" fill="#91a4f1"/><rect x="855.17" y="0" width="40.72" height="40.72" fill="#fbfbfb"/><rect x="855.17" y="0" width="40.72" height="40.72" fill="#fbfbfb"/><rect x="814.44" y="40.72" width="40.72" height="40.72" fill="#728aed"/><circle cx="834.8000000000001" cy="61.08" r="20.36" fill="#8ea1f0"/><rect x="855.17" y="40.72" width="40.72" height="40.72" fill="#fbfbfb"/><rect x="855.17" y="40.72" width="40.72" height="40.72" fill="#fafafa"/><rect x="895.8888888888889" y="0" width="81.44444444444444" height="81.44444444444444" fill="#ffffff"/><rect x="895.89" y="0" width="40.72" height="40.72" fill="#9aabf2"/><polygon points="936.61,0 936.61,40.72 895.89,40.72" fill="#ffffff"/><rect x="936.61" y="0" width="40.72" height="40.72" fill="#fbfbfb"/><polygon points="936.61,0 977.33,0 936.61,40.72" fill="#5673e9"/><rect x="895.89" y="40.72" width="40.72" height="40.72" fill="#899df0"/><polygon points="895.89,40.72 936.61,40.72 936.61,81.44" fill="#fcfcfc"/><rect x="936.61" y="40.72" width="40.72" height="40.72" fill="#fafafa"/><polygon points="936.61,40.72 977.33,81.44 936.61,81.44" fill="#879bef"/><rect x="977.33" y="0" width="81.44" height="81.44" fill="#f4f6fe"/><polygon points="977.33,0 1058.77,0 977.33,81.44" fill="#3355e4"/><rect x="1058.7777777777778" y="0" width="81.44444444444444" height="81.44444444444444" fill="#ffffff"/><rect x="1058.78" y="0" width="40.72" height="40.72" fill="#fcfcfc"/><path d="M 1058.78 0 A 40.72 40.72 0 0 1 1099.5 40.72 L 1058.78 40.72L1058.78 0" fill="#1b42e1"/><rect x="1099.5" y="0" width="40.72" height="40.72" fill="#fafafa"/><path d="M 1099.5 40.72 A 40.72 40.72 0 0 1  1140.22 0 L 1140.22 40.72L1099.5 40.72" fill="#3f5fe6"/><rect x="1058.78" y="40.72" width="40.72" height="40.72" fill="#cdd5f8"/><path d="M 1058.78 81.44 A 40.72 40.72 0 0 0 1099.5 40.72 L 1058.78 40.72L1058.78 81.44" fill="#e3e8fb"/><rect x="1099.5" y="40.72" width="40.72" height="40.72" fill="#fafafa"/><path d="M 1099.5 40.72 A 40.72 40.72 0 0 0 1140.22 81.44 L 1140.22 40.72L1099.5 40.72" fill="#7a91ee"/><rect x="1140.22" y="0" width="81.44" height="81.44" fill="#4262e7"/><path d="M 1140.22 81.44 A 81.44 81.44 0 0 0 1221.66 0 L 1140.22 0L1140.22 81.44" fill="#d0d8f9"/><rect x="1221.67" y="0" width="81.44" height="81.44" fill="#879bef"/><rect x="1221.67" y="0" width="81.44" height="81.44" fill="#c7d0f8"/><rect x="1303.11" y="0" width="81.44" height="81.44" fill="#fcfcfc"/><polygon points="1303.11,0 1384.55,0 1384.55,81.44" fill="#e6eafc"/><rect x="1384.56" y="0" width="81.44" height="81.44" fill="#3457e5"/><rect x="1384.56" y="0" width="81.44" height="81.44" fill="#fbfbfb"/><rect x="0" y="81.44444444444444" width="81.44444444444444" height="81.44444444444444" fill="#ffffff"/><rect x="0" y="81.44" width="40.72" height="40.72" fill="#3a5be5"/><polygon points="40.72,81.44 40.72,122.16 0,122.16" fill="#b7c3f6"/><rect x="40.72" y="81.44" width="40.72" height="40.72" fill="#d0d8f9"/><polygon points="40.72,81.44 81.44,122.16 40.72,122.16" fill="#fdfdfd"/><rect x="0" y="122.17" width="40.72" height="40.72" fill="#94a6f1"/><polygon points="0,122.17 40.72,122.17 40.72,162.89" fill="#fcfcfc"/><rect x="40.72" y="122.17" width="40.72" height="40.72" fill="#fafafa"/><polygon points="40.72,122.17 81.44,122.17 40.72,162.89" fill="#fdfdfd"/><rect x="81.44" y="81.44" width="81.44" height="81.44" fill="#4b69e8"/><polygon points="162.88,81.44 162.88,162.88 81.44,162.88" fill="#2f52e4"/><rect x="162.89" y="81.44" width="81.44" height="81.44" fill="#fafafa"/><polygon points="244.32999999999998,81.44 244.32999999999998,162.88 162.89,162.88" fill="#fbfbfb"/><rect x="244.33" y="81.44" width="81.44" height="81.44" fill="#fefefe"/><path d="M 244.33 162.88 A 81.44 81.44 0 0 1  325.77 81.44 L 244.33 162.88 A 81.44 81.44 0 0 0 325.77 81.44" fill="#fcfcfc"/><rect x="325.78" y="81.44" width="81.44" height="81.44" fill="#ffffff"/><polygon points="325.78,81.44 407.21999999999997,162.88 325.78,162.88" fill="#fcfcfc"/><rect x="407.22222222222223" y="81.44444444444444" width="81.44444444444444" height="81.44444444444444" fill="#ffffff"/><rect x="407.22" y="81.44" width="40.72" height="40.72" fill="#ffffff"/><path d="M 407.22 122.16 A 40.72 40.72 0 0 1  447.94000000000005 81.44 L 447.94000000000005 122.16L407.22 122.16" fill="#ffffff"/><rect x="447.94" y="81.44" width="40.72" height="40.72" fill="#fdfdfd"/><path d="M 447.94 81.44 A 40.72 40.72 0 0 1 488.65999999999997 122.16 L 447.94 122.16L447.94 81.44" fill="#b8c4f6"/><rect x="407.22" y="122.17" width="40.72" height="40.72" fill="#6c85ec"/><path d="M 407.22 122.17 A 40.72 40.72 0 0 0 447.94000000000005 162.89 L 447.94000000000005 122.17L407.22 122.17" fill="#fdfdfd"/><rect x="447.94" y="122.17" width="40.72" height="40.72" fill="#b8c4f6"/><path d="M 447.94 162.89 A 40.72 40.72 0 0 0 488.65999999999997 122.17 L 447.94 122.17L447.94 162.89" fill="#fefefe"/><rect x="488.67" y="81.44" width="81.44" height="81.44" fill="#2045e2"/><path d="M 488.67 81.44 A 81.44 81.44 0 0 1 570.11 162.88 L 488.67 162.88L488.67 81.44" fill="#6b84ec"/><rect x="570.1111111111111" y="81.44444444444444" width="81.44444444444444" height="81.44444444444444" fill="#ffffff"/><rect x="570.11" y="81.44" width="40.72" height="40.72" fill="#fcfcfc"/><polygon points="610.83,81.44 610.83,122.16 570.11,122.16" fill="#dce2fa"/><rect x="610.83" y="81.44" width="40.72" height="40.72" fill="#f4f6fe"/><polygon points="610.83,81.44 651.5500000000001,122.16 610.83,122.16" fill="#fcfcfc"/><rect x="570.11" y="122.17" width="40.72" height="40.72" fill="#fefefe"/><polygon points="570.11,122.17 610.83,122.17 610.83,162.89" fill="#fdfdfd"/><rect x="610.83" y="122.17" width="40.72" height="40.72" fill="#fdfdfd"/><polygon points="610.83,122.17 651.5500000000001,122.17 610.83,162.89" fill="#2b4fe3"/><rect x="651.56" y="81.44" width="81.44" height="81.44" fill="#fdfdfd"/><path d="M 651.56 81.44 A 81.44 81.44 0 0 1  733 162.88 L 651.56 81.44 A 81.44 81.44 0 0 0 733 162.88" fill="#fefefe"/><rect x="733" y="81.44444444444444" width="81.44444444444444" height="81.44444444444444" fill="#ffffff"/><rect x="733" y="81.44" width="40.72" height="40.72" fill="#4e6ce8"/><path d="M 733 81.44 A 40.72 40.72 0 0 0 773.72 122.16 L 773.72 81.44L733 81.44" fill="#fcfcfc"/><rect x="773.72" y="81.44" width="40.72" height="40.72" fill="#fefefe"/><path d="M 773.72 122.16 A 40.72 40.72 0 0 0 814.44 81.44 L 773.72 81.44L773.72 122.16" fill="#fcfcfc"/><rect x="733" y="122.17" width="40.72" height="40.72" fill="#fbfbfb"/><path d="M 733 162.89 A 40.72 40.72 0 0 1  773.72 122.17 L 773.72 162.89L733 162.89" fill="#fdfdfd"/><rect x="773.72" y="122.17" width="40.72" height="40.72" fill="#eef1fd"/><path d="M 773.72 122.17 A 40.72 40.72 0 0 1 814.44 162.89 L 773.72 162.89L773.72 122.17" fill="#e7ebfc"/><rect x="814.44" y="81.44" width="81.44" height="81.44" fill="#fefefe"/><path d="M 814.44 162.88 A 81.44 81.44 0 0 1  895.8800000000001 81.44 L 895.8800000000001 162.88L814.44 162.88" fill="#c7d0f8"/><rect x="895.89" y="81.44" width="81.44" height="81.44" fill="#7b91ee"/><polygon points="895.89,81.44 977.3299999999999,81.44 977.3299999999999,162.88" fill="#5572e9"/><rect x="977.3333333333333" y="81.44444444444444" width="81.44444444444444" height="81.44444444444444" fill="#ffffff"/><rect x="977.33" y="81.44" width="40.72" height="40.72" fill="#fefefe"/><path d="M 977.33 81.44 A 40.72 40.72 0 0 1 1018.0500000000001 122.16 L 977.33 122.16L977.33 81.44" fill="#1e44e2"/><rect x="1018.06" y="81.44" width="40.72" height="40.72" fill="#fbfbfb"/><path d="M 1018.06 122.16 A 40.72 40.72 0 0 1  1058.78 81.44 L 1058.78 122.16L1018.06 122.16" fill="#8398ef"/><rect x="977.33" y="122.17" width="40.72" height="40.72" fill="#fcfcfc"/><path d="M 977.33 162.89 A 40.72 40.72 0 0 0 1018.0500000000001 122.17 L 977.33 122.17L977.33 162.89" fill="#3557e5"/><rect x="1018.06" y="122.17" width="40.72" height="40.72" fill="#fafafa"/><path d="M 1018.06 122.17 A 40.72 40.72 0 0 0 1058.78 162.89 L 1058.78 122.17L1018.06 122.17" fill="#fbfbfb"/><rect x="1058.78" y="81.44" width="81.44" height="81.44" fill="#fdfdfd"/><polygon points="1058.78,81.44 1140.22,81.44 1140.22,162.88" fill="#7f95ee"/><rect x="1140.2222222222222" y="81.44444444444444" width="81.44444444444444" height="81.44444444444444" fill="#ffffff"/><rect x="1140.22" y="81.44" width="40.72" height="40.72" fill="#fcfcfc"/><polygon points="1180.94,81.44 1180.94,122.16 1140.22,122.16" fill="#ffffff"/><rect x="1180.94" y="81.44" width="40.72" height="40.72" fill="#fdfdfd"/><polygon points="1180.94,81.44 1221.66,122.16 1180.94,122.16" fill="#254ae3"/><rect x="1140.22" y="122.17" width="40.72" height="40.72" fill="#637deb"/><polygon points="1140.22,122.17 1180.94,122.17 1180.94,162.89" fill="#fdfdfd"/><rect x="1180.94" y="122.17" width="40.72" height="40.72" fill="#fefefe"/><polygon points="1180.94,122.17 1221.66,122.17 1180.94,162.89" fill="#7f94ee"/><rect x="1221.6666666666667" y="81.44444444444444" width="81.44444444444444" height="81.44444444444444" fill="#ffffff"/><rect x="1221.67" y="81.44" width="40.72" height="40.72" fill="#fefefe"/><path d="M 1221.67 122.16 A 40.72 40.72 0 0 1 1262.39 81.44 L 1262.39 91.62 A 30.54 30.54 0 0 0 1231.8500000000001 122.16" fill="#b0bdf5"/><rect x="1262.39" y="81.44" width="40.72" height="40.72" fill="#fafafa"/><path d="M 1262.39 81.44 A 40.72 40.72 0 0 1 1303.1100000000001 122.16 L 1292.93 122.16 A 30.54 30.54 0 0 0 1262.39 91.62" fill="#8b9ff0"/><rect x="1221.67" y="122.17" width="40.72" height="40.72" fill="#2449e2"/><path d="M 1221.67 122.17 A 40.72 40.72 0 0 0 1262.39 162.89 L 1262.39 152.71 A 30.54 30.54 0 0 1 1231.8500000000001 122.17" fill="#4968e7"/><rect x="1262.39" y="122.17" width="40.72" height="40.72" fill="#ffffff"/><path d="M 1262.39 162.89 A 40.72 40.72 0 0 0 1303.1100000000001 122.17 L 1292.93 122.17 A 30.54 30.54 0 0 1 1262.39 152.71" fill="#fdfdfd"/><rect x="1303.111111111111" y="81.44444444444444" width="81.44444444444444" height="81.44444444444444" fill="#ffffff"/><rect x="1303.11" y="81.44" width="40.72" height="40.72" fill="#fefefe"/><circle cx="1323.4699999999998" cy="101.8" r="20.36" fill="#d8dffa"/><rect x="1343.83" y="81.44" width="40.72" height="40.72" fill="#3053e4"/><rect x="1343.83" y="81.44" width="40.72" height="40.72" fill="#294de3"/><rect x="1303.11" y="122.17" width="40.72" height="40.72" fill="#f1f3fd"/><circle cx="1323.4699999999998" cy="142.53" r="20.36" fill="#6d86ec"/><rect x="1343.83" y="122.17" width="40.72" height="40.72" fill="#96a8f1"/><rect x="1343.83" y="122.17" width="40.72" height="40.72" fill="#fbfbfb"/><rect x="1384.5555555555554" y="81.44444444444444" width="81.44444444444444" height="81.44444444444444" fill="#ffffff"/><rect x="1384.56" y="81.44" width="40.72" height="40.72" fill="#fcfcfc"/><path d="M 1384.56 122.16 A 40.72 40.72 0 0 1 1425.28 81.44 L 1425.28 91.62 A 30.54 30.54 0 0 0 1394.74 122.16" fill="#a1b1f3"/><rect x="1425.28" y="81.44" width="40.72" height="40.72" fill="#3a5be5"/><path d="M 1425.28 81.44 A 40.72 40.72 0 0 1 1466 122.16 L 1455.82 122.16 A 30.54 30.54 0 0 0 1425.28 91.62" fill="#eef1fd"/><rect x="1384.56" y="122.17" width="40.72" height="40.72" fill="#fefefe"/><path d="M 1384.56 122.17 A 40.72 40.72 0 0 0 1425.28 162.89 L 1425.28 152.71 A 30.54 30.54 0 0 1 1394.74 122.17" fill="#1e44e2"/><rect x="1425.28" y="122.17" width="40.72" height="40.72" fill="#abbaf4"/><path d="M 1425.28 162.89 A 40.72 40.72 0 0 0 1466 122.17 L 1455.82 122.17 A 30.54 30.54 0 0 1 1425.28 152.71" fill="#fcfcfc"/><rect x="0" y="162.89" width="81.44" height="81.44" fill="#fcfcfc"/><polygon points="0,162.89 81.44,162.89 81.44,244.32999999999998" fill="#b5c1f5"/><rect x="81.44444444444444" y="162.88888888888889" width="81.44444444444444" height="81.44444444444444" fill="#ffffff"/><rect x="81.44" y="162.89" width="40.72" height="40.72" fill="#fafafa"/><polygon points="122.16,162.89 122.16,203.60999999999999 81.44,203.60999999999999" fill="#eef1fd"/><rect x="122.17" y="162.89" width="40.72" height="40.72" fill="#fbfbfb"/><polygon points="122.17,162.89 162.89,162.89 122.17,203.60999999999999" fill="#e8ecfc"/><rect x="81.44" y="203.61" width="40.72" height="40.72" fill="#dce2fa"/><polygon points="81.44,203.61 122.16,203.61 122.16,244.33" fill="#fefefe"/><rect x="122.17" y="203.61" width="40.72" height="40.72" fill="#5a76ea"/><polygon points="122.17,203.61 162.89,244.33 122.17,244.33" fill="#97a8f1"/><rect x="162.88888888888889" y="162.88888888888889" width="81.44444444444444" height="81.44444444444444" fill="#ffffff"/><rect x="162.89" y="162.89" width="40.72" height="40.72" fill="#6f88ec"/><polygon points="203.60999999999999,162.89 203.60999999999999,203.60999999999999 162.89,203.60999999999999" fill="#fcfcfc"/><rect x="203.61" y="162.89" width="40.72" height="40.72" fill="#2449e3"/><polygon points="203.61,162.89 244.33,203.60999999999999 203.61,203.60999999999999" fill="#fefefe"/><rect x="162.89" y="203.61" width="40.72" height="40.72" fill="#3557e5"/><polygon points="162.89,203.61 203.60999999999999,203.61 203.60999999999999,244.33" fill="#879bef"/><rect x="203.61" y="203.61" width="40.72" height="40.72" fill="#284ce3"/><polygon points="203.61,203.61 244.33,203.61 203.61,244.33" fill="#fefefe"/><rect x="244.33" y="162.89" width="81.44" height="81.44" fill="#3a5be5"/><path d="M 244.33 162.89 A 81.44 81.44 0 0 0 325.77 244.32999999999998 L 325.77 162.89L244.33 162.89" fill="#3456e5"/><rect x="325.77777777777777" y="162.88888888888889" width="81.44444444444444" height="81.44444444444444" fill="#ffffff"/><rect x="325.78" y="162.89" width="40.72" height="40.72" fill="#fbfbfb"/><polygon points="366.5,162.89 366.5,203.60999999999999 325.78,203.60999999999999" fill="#fafafa"/><rect x="366.5" y="162.89" width="40.72" height="40.72" fill="#f8f9fe"/><polygon points="366.5,162.89 407.22,162.89 366.5,203.60999999999999" fill="#264ae3"/><rect x="325.78" y="203.61" width="40.72" height="40.72" fill="#fdfdfd"/><polygon points="325.78,203.61 366.5,203.61 366.5,244.33" fill="#5d78ea"/><rect x="366.5" y="203.61" width="40.72" height="40.72" fill="#fdfdfd"/><polygon points="366.5,203.61 407.22,244.33 366.5,244.33" fill="#8599ef"/><rect x="407.22222222222223" y="162.88888888888889" width="81.44444444444444" height="81.44444444444444" fill="#ffffff"/><rect x="407.22" y="162.89" width="40.72" height="40.72" fill="#3154e4"/><path d="M 407.22 162.89 A 40.72 40.72 0 0 0 447.94000000000005 203.60999999999999 L 447.94000000000005 162.89L407.22 162.89" fill="#cbd3f8"/><rect x="447.94" y="162.89" width="40.72" height="40.72" fill="#fcfcfc"/><path d="M 447.94 203.60999999999999 A 40.72 40.72 0 0 0 488.65999999999997 162.89 L 447.94 162.89L447.94 203.60999999999999" fill="#fdfdfd"/><rect x="407.22" y="203.61" width="40.72" height="40.72" fill="#b9c5f6"/><path d="M 407.22 244.33 A 40.72 40.72 0 0 1  447.94000000000005 203.61 L 447.94000000000005 244.33L407.22 244.33" fill="#fefefe"/><rect x="447.94" y="203.61" width="40.72" height="40.72" fill="#fdfdfd"/><path d="M 447.94 203.61 A 40.72 40.72 0 0 1 488.65999999999997 244.33 L 447.94 244.33L447.94 203.61" fill="#c3cdf7"/><rect x="488.67" y="162.89" width="81.44" height="81.44" fill="#728aed"/><path d="M 488.67 162.89 A 81.44 81.44 0 0 1 570.11 244.32999999999998 L 488.67 244.32999999999998L488.67 162.89" fill="#94a6f1"/><rect x="570.1111111111111" y="162.88888888888889" width="81.44444444444444" height="81.44444444444444" fill="#ffffff"/><rect x="570.11" y="162.89" width="40.72" height="40.72" fill="#fefefe"/><polygon points="610.83,162.89 610.83,203.60999999999999 570.11,203.60999999999999" fill="#fbfbfb"/><rect x="610.83" y="162.89" width="40.72" height="40.72" fill="#fefefe"/><polygon points="610.83,162.89 651.5500000000001,203.60999999999999 610.83,203.60999999999999" fill="#fbfbfb"/><rect x="570.11" y="203.61" width="40.72" height="40.72" fill="#e4e9fc"/><polygon points="570.11,203.61 610.83,203.61 610.83,244.33" fill="#e4e8fb"/><rect x="610.83" y="203.61" width="40.72" height="40.72" fill="#2449e3"/><polygon points="610.83,203.61 651.5500000000001,203.61 610.83,244.33" fill="#fafafa"/><rect x="651.5555555555555" y="162.88888888888889" width="81.44444444444444" height="81.44444444444444" fill="#ffffff"/><rect x="651.56" y="162.89" width="40.72" height="40.72" fill="#fafafa"/><circle cx="671.92" cy="183.25" r="20.36" fill="#98a9f2"/><rect x="692.28" y="162.89" width="40.72" height="40.72" fill="#fdfdfd"/><rect x="692.28" y="162.89" width="40.72" height="40.72" fill="#627deb"/><rect x="651.56" y="203.61" width="40.72" height="40.72" fill="#feffff"/><circle cx="671.92" cy="223.97000000000003" r="20.36" fill="#fcfcfc"/><rect x="692.28" y="203.61" width="40.72" height="40.72" fill="#fbfbfb"/><rect x="692.28" y="203.61" width="40.72" height="40.72" fill="#fcfcfc"/><rect x="733" y="162.89" width="81.44" height="81.44" fill="#1d43e2"/><path d="M 733 162.89 A 81.44 81.44 0 0 0 814.44 244.32999999999998 L 814.44 162.89L733 162.89" fill="#8398ef"/><rect x="814.4444444444445" y="162.88888888888889" width="81.44444444444444" height="81.44444444444444" fill="#ffffff"/><rect x="814.44" y="162.89" width="40.72" height="40.72" fill="#8095ef"/><polygon points="855.1600000000001,162.89 855.1600000000001,203.60999999999999 814.44,203.60999999999999" fill="#fcfcfc"/><rect x="855.17" y="162.89" width="40.72" height="40.72" fill="#fcfcfc"/><polygon points="855.17,162.89 895.89,162.89 855.17,203.60999999999999" fill="#fcfcff"/><rect x="814.44" y="203.61" width="40.72" height="40.72" fill="#95a7f1"/><polygon points="814.44,203.61 855.1600000000001,203.61 855.1600000000001,244.33" fill="#fdfdfd"/><rect x="855.17" y="203.61" width="40.72" height="40.72" fill="#8fa2f0"/><polygon points="855.17,203.61 895.89,244.33 855.17,244.33" fill="#3c5de6"/><rect x="895.89" y="162.89" width="81.44" height="81.44" fill="#fcfcfc"/><polygon points="895.89,162.89 977.3299999999999,244.32999999999998 895.89,244.32999999999998" fill="#fdfdfd"/><rect x="977.33" y="162.89" width="81.44" height="81.44" fill="#d5dcfa"/><path d="M 977.33 162.89 A 81.44 81.44 0 0 1  1058.77 244.32999999999998 L 977.33 162.89 A 81.44 81.44 0 0 0 1058.77 244.32999999999998" fill="#b7c3f6"/><rect x="1058.7777777777778" y="162.88888888888889" width="81.44444444444444" height="81.44444444444444" fill="#ffffff"/><rect x="1058.78" y="162.89" width="40.72" height="40.72" fill="#fcfcfc"/><path d="M 1058.78 162.89 A 40.72 40.72 0 0 1 1099.5 203.60999999999999 L 1058.78 203.60999999999999L1058.78 162.89" fill="#fcfcfc"/><rect x="1099.5" y="162.89" width="40.72" height="40.72" fill="#a7b6f4"/><path d="M 1099.5 203.60999999999999 A 40.72 40.72 0 0 1  1140.22 162.89 L 1140.22 203.60999999999999L1099.5 203.60999999999999" fill="#afbdf5"/><rect x="1058.78" y="203.61" width="40.72" height="40.72" fill="#fefefe"/><path d="M 1058.78 244.33 A 40.72 40.72 0 0 0 1099.5 203.61 L 1058.78 203.61L1058.78 244.33" fill="#f8f9fe"/><rect x="1099.5" y="203.61" width="40.72" height="40.72" fill="#fefefe"/><path d="M 1099.5 203.61 A 40.72 40.72 0 0 0 1140.22 244.33 L 1140.22 203.61L1099.5 203.61" fill="#c9d2f8"/><rect x="1140.2222222222222" y="162.88888888888889" width="81.44444444444444" height="81.44444444444444" fill="#ffffff"/><rect x="1140.22" y="162.89" width="40.72" height="40.72" fill="#fafafa"/><path d="M 1140.22 203.60999999999999 A 40.72 40.72 0 0 0 1180.94 162.89 L 1140.22 162.89L1140.22 203.60999999999999" fill="#fefefe"/><rect x="1180.94" y="162.89" width="40.72" height="40.72" fill="#eff2fd"/><path d="M 1180.94 162.89 A 40.72 40.72 0 0 0 1221.66 203.60999999999999 L 1221.66 162.89L1180.94 162.89" fill="#ffffff"/><rect x="1140.22" y="203.61" width="40.72" height="40.72" fill="#2449e3"/><path d="M 1140.22 203.61 A 40.72 40.72 0 0 1 1180.94 244.33 L 1140.22 244.33L1140.22 203.61" fill="#294de3"/><rect x="1180.94" y="203.61" width="40.72" height="40.72" fill="#c2ccf7"/><path d="M 1180.94 244.33 A 40.72 40.72 0 0 1  1221.66 203.61 L 1221.66 244.33L1180.94 244.33" fill="#eef1fd"/><rect x="1221.67" y="162.89" width="81.44" height="81.44" fill="#fafafa"/><rect x="1221.67" y="162.89" width="81.44" height="81.44" fill="#b8c4f6"/><rect x="1303.11" y="162.89" width="81.44" height="81.44" fill="#5572e9"/><rect x="1303.11" y="162.89" width="81.44" height="81.44" fill="#5874e9"/><rect x="1384.56" y="162.89" width="81.44" height="81.44" fill="#fefefe"/><rect x="1384.56" y="162.89" width="81.44" height="81.44" fill="#fdfdfd"/><rect x="0" y="244.33333333333331" width="81.44444444444444" height="81.44444444444444" fill="#ffffff"/><rect x="0" y="244.33" width="40.72" height="40.72" fill="#d2daf9"/><polygon points="40.72,244.33 40.72,285.05 0,285.05" fill="#516ee8"/><rect x="40.72" y="244.33" width="40.72" height="40.72" fill="#ffffff"/><polygon points="40.72,244.33 81.44,285.05 40.72,285.05" fill="#fcfcff"/><rect x="0" y="285.06" width="40.72" height="40.72" fill="#8095ee"/><polygon points="0,285.06 40.72,285.06 40.72,325.78" fill="#bec9f7"/><rect x="40.72" y="285.06" width="40.72" height="40.72" fill="#5975e9"/><polygon points="40.72,285.06 81.44,285.06 40.72,325.78" fill="#8c9ff0"/><rect x="81.44" y="244.33" width="81.44" height="81.44" fill="#fdfdfd"/><rect x="81.44" y="244.33" width="81.44" height="81.44" fill="#fefefe"/><rect x="162.88888888888889" y="244.33333333333331" width="81.44444444444444" height="81.44444444444444" fill="#ffffff"/><rect x="162.89" y="244.33" width="40.72" height="40.72" fill="#3c5de6"/><path d="M 162.89 285.05 A 40.72 40.72 0 0 1 203.60999999999999 244.33 L 203.60999999999999 254.51000000000002 A 30.54 30.54 0 0 0 173.07 285.05" fill="#fbfbfb"/><rect x="203.61" y="244.33" width="40.72" height="40.72" fill="#dee4fb"/><path d="M 203.61 244.33 A 40.72 40.72 0 0 1 244.33 285.05 L 234.15 285.05 A 30.54 30.54 0 0 0 203.61 254.51000000000002" fill="#fefefe"/><rect x="162.89" y="285.06" width="40.72" height="40.72" fill="#b5c1f5"/><path d="M 162.89 285.06 A 40.72 40.72 0 0 0 203.60999999999999 325.78 L 203.60999999999999 315.6 A 30.54 30.54 0 0 1 173.07 285.06" fill="#fbfbfb"/><rect x="203.61" y="285.06" width="40.72" height="40.72" fill="#607bea"/><path d="M 203.61 325.78 A 40.72 40.72 0 0 0 244.33 285.06 L 234.15 285.06 A 30.54 30.54 0 0 1 203.61 315.6" fill="#fefefe"/><rect x="244.33333333333331" y="244.33333333333331" width="81.44444444444444" height="81.44444444444444" fill="#ffffff"/><rect x="244.33" y="244.33" width="40.72" height="40.72" fill="#ffffff"/><path d="M 244.33 244.33 A 40.72 40.72 0 0 0 285.05 285.05 L 285.05 244.33L244.33 244.33" fill="#bcc8f6"/><rect x="285.06" y="244.33" width="40.72" height="40.72" fill="#c9d2f8"/><path d="M 285.06 285.05 A 40.72 40.72 0 0 0 325.78 244.33 L 285.06 244.33L285.06 285.05" fill="#fdfdfd"/><rect x="244.33" y="285.06" width="40.72" height="40.72" fill="#a1b1f3"/><path d="M 244.33 325.78 A 40.72 40.72 0 0 1  285.05 285.06 L 285.05 325.78L244.33 325.78" fill="#b7c3f6"/><rect x="285.06" y="285.06" width="40.72" height="40.72" fill="#fefefe"/><path d="M 285.06 285.06 A 40.72 40.72 0 0 1 325.78 325.78 L 285.06 325.78L285.06 285.06" fill="#fbfbfb"/><rect x="325.78" y="244.33" width="81.44" height="81.44" fill="#fcfcfc"/><rect x="325.78" y="244.33" width="81.44" height="81.44" fill="#fafafa"/><rect x="407.22222222222223" y="244.33333333333331" width="81.44444444444444" height="81.44444444444444" fill="#ffffff"/><rect x="407.22" y="244.33" width="40.72" height="40.72" fill="#fefefe"/><path d="M 407.22 244.33 A 40.72 40.72 0 0 0 447.94000000000005 285.05 L 447.94000000000005 244.33L407.22 244.33" fill="#fafafa"/><rect x="447.94" y="244.33" width="40.72" height="40.72" fill="#fdfdfd"/><path d="M 447.94 285.05 A 40.72 40.72 0 0 0 488.65999999999997 244.33 L 447.94 244.33L447.94 285.05" fill="#fbfbfb"/><rect x="407.22" y="285.06" width="40.72" height="40.72" fill="#5370e9"/><path d="M 407.22 325.78 A 40.72 40.72 0 0 1  447.94000000000005 285.06 L 447.94000000000005 325.78L407.22 325.78" fill="#fbfbfb"/><rect x="447.94" y="285.06" width="40.72" height="40.72" fill="#fafafa"/><path d="M 447.94 285.06 A 40.72 40.72 0 0 1 488.65999999999997 325.78 L 447.94 325.78L447.94 285.06" fill="#b2bff5"/><rect x="488.66666666666663" y="244.33333333333331" width="81.44444444444444" height="81.44444444444444" fill="#ffffff"/><rect x="488.67" y="244.33" width="40.72" height="40.72" fill="#fcfcfc"/><polygon points="529.39,244.33 529.39,285.05 488.67,285.05" fill="#93a5f1"/><rect x="529.39" y="244.33" width="40.72" height="40.72" fill="#fdfeff"/><polygon points="529.39,244.33 570.11,285.05 529.39,285.05" fill="#fefefe"/><rect x="488.67" y="285.06" width="40.72" height="40.72" fill="#3e5ee6"/><polygon points="488.67,285.06 529.39,285.06 488.67,325.78" fill="#3355e4"/><rect x="529.39" y="285.06" width="40.72" height="40.72" fill="#fbfbfb"/><polygon points="529.39,285.06 570.11,285.06 570.11,325.78" fill="#4463e7"/><rect x="570.1111111111111" y="244.33333333333331" width="81.44444444444444" height="81.44444444444444" fill="#ffffff"/><rect x="570.11" y="244.33" width="40.72" height="40.72" fill="#fcfcfc"/><path d="M 570.11 244.33 A 40.72 40.72 0 0 0 610.83 285.05 L 610.83 244.33L570.11 244.33" fill="#5f7aea"/><rect x="610.83" y="244.33" width="40.72" height="40.72" fill="#fdfdfd"/><path d="M 610.83 285.05 A 40.72 40.72 0 0 0 651.5500000000001 244.33 L 610.83 244.33L610.83 285.05" fill="#fafafa"/><rect x="570.11" y="285.06" width="40.72" height="40.72" fill="#c4cef7"/><path d="M 570.11 325.78 A 40.72 40.72 0 0 1  610.83 285.06 L 610.83 325.78L570.11 325.78" fill="#a3b3f3"/><rect x="610.83" y="285.06" width="40.72" height="40.72" fill="#fbfbfb"/><path d="M 610.83 285.06 A 40.72 40.72 0 0 1 651.5500000000001 325.78 L 610.83 325.78L610.83 285.06" fill="#c1ccf7"/><rect x="651.56" y="244.33" width="81.44" height="81.44" fill="#fafafa"/><rect x="651.56" y="244.33" width="81.44" height="81.44" fill="#3557e5"/><rect x="733" y="244.33" width="81.44" height="81.44" fill="#9eaef2"/><path d="M 733 325.77 A 81.44 81.44 0 0 0 814.44 244.33 L 733 244.33L733 325.77" fill="#fcfcfc"/><rect x="814.44" y="244.33" width="81.44" height="81.44" fill="#1d43e2"/><polygon points="895.8800000000001,244.33 895.8800000000001,325.77 814.44,325.77" fill="#fefefe"/><rect x="895.89" y="244.33" width="81.44" height="81.44" fill="#fefefe"/><polygon points="895.89,244.33 977.3299999999999,244.33 895.89,325.77" fill="#fafafa"/><rect x="977.33" y="244.33" width="81.44" height="81.44" fill="#3c5de6"/><polygon points="977.33,244.33 1058.77,325.77 977.33,325.77" fill="#ffffff"/><rect x="1058.78" y="244.33" width="81.44" height="81.44" fill="#fbfbfb"/><rect x="1058.78" y="244.33" width="81.44" height="81.44" fill="#a5b5f3"/><rect x="1140.2222222222222" y="244.33333333333331" width="81.44444444444444" height="81.44444444444444" fill="#ffffff"/><rect x="1140.22" y="244.33" width="40.72" height="40.72" fill="#6b84ec"/><polygon points="1180.94,244.33 1180.94,285.05 1140.22,285.05" fill="#3053e4"/><rect x="1180.94" y="244.33" width="40.72" height="40.72" fill="#b6c2f6"/><polygon points="1180.94,244.33 1221.66,285.05 1180.94,285.05" fill="#ffffff"/><rect x="1140.22" y="285.06" width="40.72" height="40.72" fill="#fafafa"/><polygon points="1140.22,285.06 1180.94,285.06 1140.22,325.78" fill="#ffffff"/><rect x="1180.94" y="285.06" width="40.72" height="40.72" fill="#617ceb"/><polygon points="1180.94,285.06 1221.66,285.06 1221.66,325.78" fill="#fdfdfd"/><rect x="1221.67" y="244.33" width="81.44" height="81.44" fill="#5d78ea"/><path d="M 1221.67 325.77 A 81.44 81.44 0 0 1  1303.1100000000001 244.33 L 1303.1100000000001 325.77L1221.67 325.77" fill="#fbfbfb"/><rect x="1303.11" y="244.33" width="81.44" height="81.44" fill="#fafafa"/><polygon points="1303.11,244.33 1384.55,244.33 1384.55,325.77" fill="#8197ef"/><rect x="1384.56" y="244.33" width="81.44" height="81.44" fill="#4a69e8"/><polygon points="1384.56,244.33 1466,325.77 1384.56,325.77" fill="#fbfbfb"/><rect x="0" y="325.77777777777777" width="81.44444444444444" height="81.44444444444444" fill="#ffffff"/><rect x="0" y="325.78" width="40.72" height="40.72" fill="#fbfbfb"/><path d="M 0 366.5 A 40.72 40.72 0 0 1  40.72 325.78 L 40.72 366.5L0 366.5" fill="#fdfdfd"/><rect x="40.72" y="325.78" width="40.72" height="40.72" fill="#c1cbf7"/><path d="M 40.72 325.78 A 40.72 40.72 0 0 1 81.44 366.5 L 40.72 366.5L40.72 325.78" fill="#b6c3f6"/><rect x="0" y="366.5" width="40.72" height="40.72" fill="#5572e9"/><path d="M 0 366.5 A 40.72 40.72 0 0 0 40.72 407.22 L 40.72 366.5L0 366.5" fill="#fefefe"/><rect x="40.72" y="366.5" width="40.72" height="40.72" fill="#dfe4fb"/><path d="M 40.72 407.22 A 40.72 40.72 0 0 0 81.44 366.5 L 40.72 366.5L40.72 407.22" fill="#5a76ea"/><rect x="81.44444444444444" y="325.77777777777777" width="81.44444444444444" height="81.44444444444444" fill="#ffffff"/><rect x="81.44" y="325.78" width="40.72" height="40.72" fill="#ced6f9"/><polygon points="122.16,325.78 122.16,366.5 81.44,366.5" fill="#ffffff"/><rect x="122.17" y="325.78" width="40.72" height="40.72" fill="#ffffff"/><polygon points="122.17,325.78 162.89,325.78 122.17,366.5" fill="#fcfcfc"/><rect x="81.44" y="366.5" width="40.72" height="40.72" fill="#ffffff"/><polygon points="81.44,366.5 122.16,366.5 122.16,407.22" fill="#3c5de6"/><rect x="122.17" y="366.5" width="40.72" height="40.72" fill="#9cadf2"/><polygon points="122.17,366.5 162.89,407.22 122.17,407.22" fill="#1a41e1"/><rect x="162.88888888888889" y="325.77777777777777" width="81.44444444444444" height="81.44444444444444" fill="#ffffff"/><rect x="162.89" y="325.78" width="40.72" height="40.72" fill="#8da0f0"/><path d="M 162.89 366.5 A 40.72 40.72 0 0 1  203.60999999999999 325.78 L 203.60999999999999 366.5L162.89 366.5" fill="#fbfbfb"/><rect x="203.61" y="325.78" width="40.72" height="40.72" fill="#4061e6"/><path d="M 203.61 325.78 A 40.72 40.72 0 0 1 244.33 366.5 L 203.61 366.5L203.61 325.78" fill="#f5f6fe"/><rect x="162.89" y="366.5" width="40.72" height="40.72" fill="#fcfcfc"/><path d="M 162.89 366.5 A 40.72 40.72 0 0 0 203.60999999999999 407.22 L 203.60999999999999 366.5L162.89 366.5" fill="#d7defa"/><rect x="203.61" y="366.5" width="40.72" height="40.72" fill="#fefefe"/><path d="M 203.61 407.22 A 40.72 40.72 0 0 0 244.33 366.5 L 203.61 366.5L203.61 407.22" fill="#fdfdfd"/><rect x="244.33333333333331" y="325.77777777777777" width="81.44444444444444" height="81.44444444444444" fill="#ffffff"/><rect x="244.33" y="325.78" width="40.72" height="40.72" fill="#d5dcfa"/><polygon points="285.05,325.78 285.05,366.5 244.33,366.5" fill="#fbfbfb"/><rect x="285.06" y="325.78" width="40.72" height="40.72" fill="#adbbf4"/><polygon points="285.06,325.78 325.78,366.5 285.06,366.5" fill="#c8d1f8"/><rect x="244.33" y="366.5" width="40.72" height="40.72" fill="#4161e6"/><polygon points="244.33,366.5 285.05,366.5 285.05,407.22" fill="#627ceb"/><rect x="285.06" y="366.5" width="40.72" height="40.72" fill="#e5e9fc"/><polygon points="285.06,366.5 325.78,366.5 285.06,407.22" fill="#5370e9"/><rect x="325.78" y="325.78" width="81.44" height="81.44" fill="#fcfcfc"/><rect x="325.78" y="325.78" width="81.44" height="81.44" fill="#fbfbfb"/><rect x="407.22" y="325.78" width="81.44" height="81.44" fill="#93a5f1"/><polygon points="488.66,325.78 488.66,407.21999999999997 407.22,407.21999999999997" fill="#fcfcfc"/><rect x="488.66666666666663" y="325.77777777777777" width="81.44444444444444" height="81.44444444444444" fill="#ffffff"/><rect x="488.67" y="325.78" width="40.72" height="40.72" fill="#adbbf4"/><polygon points="529.39,325.78 529.39,366.5 488.67,366.5" fill="#b6c3f6"/><rect x="529.39" y="325.78" width="40.72" height="40.72" fill="#f7f8fe"/><polygon points="529.39,325.78 570.11,366.5 529.39,366.5" fill="#758ced"/><rect x="488.67" y="366.5" width="40.72" height="40.72" fill="#3355e4"/><polygon points="488.67,366.5 529.39,366.5 488.67,407.22" fill="#a8b7f4"/><rect x="529.39" y="366.5" width="40.72" height="40.72" fill="#d9dffa"/><polygon points="529.39,366.5 570.11,366.5 570.11,407.22" fill="#ffffff"/><rect x="570.11" y="325.78" width="81.44" height="81.44" fill="#889cf0"/><polygon points="570.11,325.78 651.55,325.78 651.55,407.21999999999997" fill="#aab9f4"/><rect x="651.5555555555555" y="325.77777777777777" width="81.44444444444444" height="81.44444444444444" fill="#ffffff"/><rect x="651.56" y="325.78" width="40.72" height="40.72" fill="#fdfdfd"/><path d="M 651.56 366.5 A 40.72 40.72 0 0 1 692.28 325.78 L 692.28 335.96 A 30.54 30.54 0 0 0 661.7399999999999 366.5" fill="#ffffff"/><rect x="692.28" y="325.78" width="40.72" height="40.72" fill="#a8b7f4"/><path d="M 692.28 325.78 A 40.72 40.72 0 0 1 733 366.5 L 722.8199999999999 366.5 A 30.54 30.54 0 0 0 692.28 335.96" fill="#f3f5fd"/><rect x="651.56" y="366.5" width="40.72" height="40.72" fill="#2046e2"/><path d="M 651.56 366.5 A 40.72 40.72 0 0 0 692.28 407.22 L 692.28 397.04 A 30.54 30.54 0 0 1 661.7399999999999 366.5" fill="#4161e6"/><rect x="692.28" y="366.5" width="40.72" height="40.72" fill="#fdfdfd"/><path d="M 692.28 407.22 A 40.72 40.72 0 0 0 733 366.5 L 722.8199999999999 366.5 A 30.54 30.54 0 0 1 692.28 397.04" fill="#6d86ec"/><rect x="733" y="325.78" width="81.44" height="81.44" fill="#fafafa"/><rect x="733" y="325.78" width="81.44" height="81.44" fill="#fdfdfd"/><rect x="814.44" y="325.78" width="81.44" height="81.44" fill="#dce2fb"/><polygon points="814.44,325.78 895.8800000000001,325.78 895.8800000000001,407.21999999999997" fill="#fefefe"/><rect x="895.8888888888889" y="325.77777777777777" width="81.44444444444444" height="81.44444444444444" fill="#ffffff"/><rect x="895.89" y="325.78" width="40.72" height="40.72" fill="#7f94ee"/><polygon points="936.61,325.78 936.61,366.5 895.89,366.5" fill="#fdfdfd"/><rect x="936.61" y="325.78" width="40.72" height="40.72" fill="#fcfcfc"/><polygon points="936.61,325.78 977.33,325.78 936.61,366.5" fill="#90a2f1"/><rect x="895.89" y="366.5" width="40.72" height="40.72" fill="#7e94ee"/><polygon points="895.89,366.5 936.61,366.5 936.61,407.22" fill="#b2bff5"/><rect x="936.61" y="366.5" width="40.72" height="40.72" fill="#3255e4"/><polygon points="936.61,366.5 977.33,407.22 936.61,407.22" fill="#fefefe"/><rect x="977.3333333333333" y="325.77777777777777" width="81.44444444444444" height="81.44444444444444" fill="#ffffff"/><rect x="977.33" y="325.78" width="40.72" height="40.72" fill="#fcfcfc"/><path d="M 977.33 325.78 A 40.72 40.72 0 0 1 1018.0500000000001 366.5 L 977.33 366.5L977.33 325.78" fill="#8197ef"/><rect x="1018.06" y="325.78" width="40.72" height="40.72" fill="#fdfdfd"/><path d="M 1018.06 366.5 A 40.72 40.72 0 0 1  1058.78 325.78 L 1058.78 366.5L1018.06 366.5" fill="#fcfcfc"/><rect x="977.33" y="366.5" width="40.72" height="40.72" fill="#fdfdfd"/><path d="M 977.33 407.22 A 40.72 40.72 0 0 0 1018.0500000000001 366.5 L 977.33 366.5L977.33 407.22" fill="#dbe1fa"/><rect x="1018.06" y="366.5" width="40.72" height="40.72" fill="#9aabf2"/><path d="M 1018.06 366.5 A 40.72 40.72 0 0 0 1058.78 407.22 L 1058.78 366.5L1018.06 366.5" fill="#c3cdf7"/><rect x="1058.78" y="325.78" width="81.44" height="81.44" fill="#fbfbfb"/><path d="M 1058.78 407.21999999999997 A 81.44 81.44 0 0 1  1140.22 325.78 L 1140.22 407.21999999999997L1058.78 407.21999999999997" fill="#3f5fe6"/><rect x="1140.22" y="325.78" width="81.44" height="81.44" fill="#fefefe"/><polygon points="1140.22,325.78 1221.66,325.78 1140.22,407.21999999999997" fill="#899df0"/><rect x="1221.6666666666667" y="325.77777777777777" width="81.44444444444444" height="81.44444444444444" fill="#ffffff"/><rect x="1221.67" y="325.78" width="40.72" height="40.72" fill="#4665e7"/><polygon points="1262.39,325.78 1262.39,366.5 1221.67,366.5" fill="#8095ee"/><rect x="1262.39" y="325.78" width="40.72" height="40.72" fill="#7c92ee"/><polygon points="1262.39,325.78 1303.1100000000001,366.5 1262.39,366.5" fill="#294de3"/><rect x="1221.67" y="366.5" width="40.72" height="40.72" fill="#fefefe"/><polygon points="1221.67,366.5 1262.39,366.5 1221.67,407.22" fill="#fbfbfb"/><rect x="1262.39" y="366.5" width="40.72" height="40.72" fill="#bdc9f6"/><polygon points="1262.39,366.5 1303.1100000000001,366.5 1303.1100000000001,407.22" fill="#fcfcfc"/><rect x="1303.11" y="325.78" width="81.44" height="81.44" fill="#a8b7f4"/><rect x="1303.11" y="325.78" width="81.44" height="81.44" fill="#c1cbf7"/><rect x="1384.5555555555554" y="325.77777777777777" width="81.44444444444444" height="81.44444444444444" fill="#ffffff"/><rect x="1384.56" y="325.78" width="40.72" height="40.72" fill="#c0caf7"/><path d="M 1384.56 366.5 A 40.72 40.72 0 0 0 1425.28 325.78 L 1384.56 325.78L1384.56 366.5" fill="#ffffff"/><rect x="1425.28" y="325.78" width="40.72" height="40.72" fill="#fbfbfb"/><path d="M 1425.28 325.78 A 40.72 40.72 0 0 0 1466 366.5 L 1466 325.78L1425.28 325.78" fill="#fefefe"/><rect x="1384.56" y="366.5" width="40.72" height="40.72" fill="#fefefe"/><path d="M 1384.56 366.5 A 40.72 40.72 0 0 1 1425.28 407.22 L 1384.56 407.22L1384.56 366.5" fill="#869bef"/><rect x="1425.28" y="366.5" width="40.72" height="40.72" fill="#fcfcfc"/><path d="M 1425.28 407.22 A 40.72 40.72 0 0 1  1466 366.5 L 1466 407.22L1425.28 407.22" fill="#fdfdfd"/><rect x="0" y="407.22222222222223" width="81.44444444444444" height="81.44444444444444" fill="#ffffff"/><rect x="0" y="407.22" width="40.72" height="40.72" fill="#d8dffa"/><path d="M 0 407.22 A 40.72 40.72 0 0 0 40.72 447.94000000000005 L 40.72 407.22L0 407.22" fill="#2f52e4"/><rect x="40.72" y="407.22" width="40.72" height="40.72" fill="#fafafa"/><path d="M 40.72 447.94000000000005 A 40.72 40.72 0 0 0 81.44 407.22 L 40.72 407.22L40.72 447.94000000000005" fill="#4968e7"/><rect x="0" y="447.94" width="40.72" height="40.72" fill="#4665e7"/><path d="M 0 488.65999999999997 A 40.72 40.72 0 0 1  40.72 447.94 L 40.72 488.65999999999997L0 488.65999999999997" fill="#ebeffc"/><rect x="40.72" y="447.94" width="40.72" height="40.72" fill="#aab8f4"/><path d="M 40.72 447.94 A 40.72 40.72 0 0 1 81.44 488.65999999999997 L 40.72 488.65999999999997L40.72 447.94" fill="#fafafa"/><rect x="81.44" y="407.22" width="81.44" height="81.44" fill="#fbfbfb"/><path d="M 81.44 407.22 A 81.44 81.44 0 0 1 162.88 488.66 L 81.44 488.66L81.44 407.22" fill="#fafafa"/><rect x="162.89" y="407.22" width="81.44" height="81.44" fill="#7b91ee"/><path d="M 162.89 407.22 A 81.44 81.44 0 0 1 244.32999999999998 488.66 L 162.89 488.66L162.89 407.22" fill="#d5dcfa"/><rect x="244.33333333333331" y="407.22222222222223" width="81.44444444444444" height="81.44444444444444" fill="#ffffff"/><rect x="244.33" y="407.22" width="40.72" height="40.72" fill="#647eeb"/><polygon points="285.05,407.22 285.05,447.94000000000005 244.33,447.94000000000005" fill="#fdfdfd"/><rect x="285.06" y="407.22" width="40.72" height="40.72" fill="#f2f4fd"/><polygon points="285.06,407.22 325.78,447.94000000000005 285.06,447.94000000000005" fill="#fefefe"/><rect x="244.33" y="447.94" width="40.72" height="40.72" fill="#e5e9fc"/><polygon points="244.33,447.94 285.05,447.94 244.33,488.65999999999997" fill="#fdfdfd"/><rect x="285.06" y="447.94" width="40.72" height="40.72" fill="#fbfbfb"/><polygon points="285.06,447.94 325.78,447.94 325.78,488.65999999999997" fill="#fcfcfc"/><rect x="325.77777777777777" y="407.22222222222223" width="81.44444444444444" height="81.44444444444444" fill="#ffffff"/><rect x="325.78" y="407.22" width="40.72" height="40.72" fill="#ffffff"/><circle cx="346.14" cy="427.58000000000004" r="20.36" fill="#fcfcfc"/><rect x="366.5" y="407.22" width="40.72" height="40.72" fill="#fdfdfd"/><rect x="366.5" y="407.22" width="40.72" height="40.72" fill="#fcfcfc"/><rect x="325.78" y="447.94" width="40.72" height="40.72" fill="#cdd5f8"/><circle cx="346.14" cy="468.3" r="20.36" fill="#d7ddfa"/><rect x="366.5" y="447.94" width="40.72" height="40.72" fill="#788fed"/><rect x="366.5" y="447.94" width="40.72" height="40.72" fill="#fcfcfc"/><rect x="407.22" y="407.22" width="81.44" height="81.44" fill="#fcfcfc"/><path d="M 407.22 407.22 A 81.44 81.44 0 0 0 488.66 488.66 L 488.66 407.22L407.22 407.22" fill="#fcfcfc"/><rect x="488.66666666666663" y="407.22222222222223" width="81.44444444444444" height="81.44444444444444" fill="#ffffff"/><rect x="488.67" y="407.22" width="40.72" height="40.72" fill="#bfcaf7"/><polygon points="529.39,407.22 529.39,447.94000000000005 488.67,447.94000000000005" fill="#fdfdfd"/><rect x="529.39" y="407.22" width="40.72" height="40.72" fill="#fcfcfc"/><polygon points="529.39,407.22 570.11,447.94000000000005 529.39,447.94000000000005" fill="#fdfdfd"/><rect x="488.67" y="447.94" width="40.72" height="40.72" fill="#b8c4f6"/><polygon points="488.67,447.94 529.39,447.94 529.39,488.65999999999997" fill="#fcfcfc"/><rect x="529.39" y="447.94" width="40.72" height="40.72" fill="#2c50e4"/><polygon points="529.39,447.94 570.11,447.94 529.39,488.65999999999997" fill="#3b5ce6"/><rect x="570.1111111111111" y="407.22222222222223" width="81.44444444444444" height="81.44444444444444" fill="#ffffff"/><rect x="570.11" y="407.22" width="40.72" height="40.72" fill="#193fe1"/><path d="M 570.11 407.22 A 40.72 40.72 0 0 0 610.83 447.94000000000005 L 610.83 407.22L570.11 407.22" fill="#9aabf2"/><rect x="610.83" y="407.22" width="40.72" height="40.72" fill="#fefefe"/><path d="M 610.83 447.94000000000005 A 40.72 40.72 0 0 0 651.5500000000001 407.22 L 610.83 407.22L610.83 447.94000000000005" fill="#ffffff"/><rect x="570.11" y="447.94" width="40.72" height="40.72" fill="#2248e2"/><path d="M 570.11 488.65999999999997 A 40.72 40.72 0 0 1  610.83 447.94 L 610.83 488.65999999999997L570.11 488.65999999999997" fill="#fcfcfc"/><rect x="610.83" y="447.94" width="40.72" height="40.72" fill="#7e94ee"/><path d="M 610.83 447.94 A 40.72 40.72 0 0 1 651.5500000000001 488.65999999999997 L 610.83 488.65999999999997L610.83 447.94" fill="#fcfcfc"/><rect x="651.56" y="407.22" width="81.44" height="81.44" fill="#fdfdfd"/><path d="M 651.56 488.66 A 81.44 81.44 0 0 0 733 407.22 L 651.56 407.22L651.56 488.66" fill="#7189ed"/><rect x="733" y="407.22" width="81.44" height="81.44" fill="#274ce3"/><rect x="733" y="407.22" width="81.44" height="81.44" fill="#fefefe"/><rect x="814.4444444444445" y="407.22222222222223" width="81.44444444444444" height="81.44444444444444" fill="#ffffff"/><rect x="814.44" y="407.22" width="40.72" height="40.72" fill="#98aaf2"/><path d="M 814.44 407.22 A 40.72 40.72 0 0 0 855.1600000000001 447.94000000000005 L 855.1600000000001 407.22L814.44 407.22" fill="#fefefe"/><rect x="855.17" y="407.22" width="40.72" height="40.72" fill="#fdfdfd"/><path d="M 855.17 447.94000000000005 A 40.72 40.72 0 0 0 895.89 407.22 L 855.17 407.22L855.17 447.94000000000005" fill="#5471e9"/><rect x="814.44" y="447.94" width="40.72" height="40.72" fill="#c1ccf7"/><path d="M 814.44 488.65999999999997 A 40.72 40.72 0 0 1  855.1600000000001 447.94 L 855.1600000000001 488.65999999999997L814.44 488.65999999999997" fill="#97a8f1"/><rect x="855.17" y="447.94" width="40.72" height="40.72" fill="#ffffff"/><path d="M 855.17 447.94 A 40.72 40.72 0 0 1 895.89 488.65999999999997 L 855.17 488.65999999999997L855.17 447.94" fill="#fdfdfd"/><rect x="895.89" y="407.22" width="81.44" height="81.44" fill="#8095ee"/><polygon points="895.89,407.22 977.3299999999999,407.22 977.3299999999999,488.66" fill="#4564e7"/><rect x="977.33" y="407.22" width="81.44" height="81.44" fill="#fefefe"/><polygon points="977.33,407.22 1058.77,407.22 1058.77,488.66" fill="#4968e7"/><rect x="1058.78" y="407.22" width="81.44" height="81.44" fill="#acbaf4"/><polygon points="1058.78,407.22 1140.22,407.22 1058.78,488.66" fill="#fbfcfe"/><rect x="1140.22" y="407.22" width="81.44" height="81.44" fill="#bbc7f6"/><polygon points="1140.22,407.22 1221.66,407.22 1140.22,488.66" fill="#fefefe"/><rect x="1221.6666666666667" y="407.22222222222223" width="81.44444444444444" height="81.44444444444444" fill="#ffffff"/><rect x="1221.67" y="407.22" width="40.72" height="40.72" fill="#dae0fa"/><polygon points="1262.39,407.22 1262.39,447.94000000000005 1221.67,447.94000000000005" fill="#8c9ff0"/><rect x="1262.39" y="407.22" width="40.72" height="40.72" fill="#fbfbfb"/><polygon points="1262.39,407.22 1303.1100000000001,447.94000000000005 1262.39,447.94000000000005" fill="#fefefe"/><rect x="1221.67" y="447.94" width="40.72" height="40.72" fill="#bbc6f6"/><polygon points="1221.67,447.94 1262.39,447.94 1221.67,488.65999999999997" fill="#fcfcfc"/><rect x="1262.39" y="447.94" width="40.72" height="40.72" fill="#b8c4f6"/><polygon points="1262.39,447.94 1303.1100000000001,447.94 1303.1100000000001,488.65999999999997" fill="#fbfbfb"/><rect x="1303.11" y="407.22" width="81.44" height="81.44" fill="#fbfbfb"/><path d="M 1303.11 407.22 A 81.44 81.44 0 0 0 1384.55 488.66 L 1384.55 407.22L1303.11 407.22" fill="#1940e1"/><rect x="1384.5555555555554" y="407.22222222222223" width="81.44444444444444" height="81.44444444444444" fill="#ffffff"/><rect x="1384.56" y="407.22" width="40.72" height="40.72" fill="#93a5f1"/><path d="M 1384.56 407.22 A 40.72 40.72 0 0 1 1425.28 447.94000000000005 L 1384.56 447.94000000000005L1384.56 407.22" fill="#b0bef5"/><rect x="1425.28" y="407.22" width="40.72" height="40.72" fill="#4867e7"/><path d="M 1425.28 447.94000000000005 A 40.72 40.72 0 0 1  1466 407.22 L 1466 447.94000000000005L1425.28 447.94000000000005" fill="#f3f5fd"/><rect x="1384.56" y="447.94" width="40.72" height="40.72" fill="#8095ef"/><path d="M 1384.56 488.65999999999997 A 40.72 40.72 0 0 0 1425.28 447.94 L 1384.56 447.94L1384.56 488.65999999999997" fill="#dae0fa"/><rect x="1425.28" y="447.94" width="40.72" height="40.72" fill="#fefefe"/><path d="M 1425.28 447.94 A 40.72 40.72 0 0 0 1466 488.65999999999997 L 1466 447.94L1425.28 447.94" fill="#fafafa"/><rect x="0" y="488.67" width="81.44" height="81.44" fill="#fbfbfb"/><polygon points="0,488.67 81.44,570.11 0,570.11" fill="#284ce3"/><rect x="81.44" y="488.67" width="81.44" height="81.44" fill="#fdfdfd"/><rect x="81.44" y="488.67" width="81.44" height="81.44" fill="#4e6ce8"/><rect x="162.88888888888889" y="488.66666666666663" width="81.44444444444444" height="81.44444444444444" fill="#ffffff"/><rect x="162.89" y="488.67" width="40.72" height="40.72" fill="#4766e7"/><path d="M 162.89 488.67 A 40.72 40.72 0 0 0 203.60999999999999 529.39 L 203.60999999999999 488.67L162.89 488.67" fill="#fafafa"/><rect x="203.61" y="488.67" width="40.72" height="40.72" fill="#5572e9"/><path d="M 203.61 529.39 A 40.72 40.72 0 0 0 244.33 488.67 L 203.61 488.67L203.61 529.39" fill="#c8d1f8"/><rect x="162.89" y="529.39" width="40.72" height="40.72" fill="#fdfdfd"/><path d="M 162.89 570.11 A 40.72 40.72 0 0 1  203.60999999999999 529.39 L 203.60999999999999 570.11L162.89 570.11" fill="#ffffff"/><rect x="203.61" y="529.39" width="40.72" height="40.72" fill="#b4c0f5"/><path d="M 203.61 529.39 A 40.72 40.72 0 0 1 244.33 570.11 L 203.61 570.11L203.61 529.39" fill="#fefefe"/><rect x="244.33" y="488.67" width="81.44" height="81.44" fill="#abb9f4"/><rect x="244.33" y="488.67" width="81.44" height="81.44" fill="#2348e2"/><rect x="325.78" y="488.67" width="81.44" height="81.44" fill="#fbfbfb"/><rect x="325.78" y="488.67" width="81.44" height="81.44" fill="#95a7f1"/><rect x="407.22" y="488.67" width="81.44" height="81.44" fill="#4161e6"/><rect x="407.22" y="488.67" width="81.44" height="81.44" fill="#3e5ee6"/><rect x="488.66666666666663" y="488.66666666666663" width="81.44444444444444" height="81.44444444444444" fill="#ffffff"/><rect x="488.67" y="488.67" width="40.72" height="40.72" fill="#fdfdfd"/><polygon points="529.39,488.67 529.39,529.39 488.67,529.39" fill="#fdfdfd"/><rect x="529.39" y="488.67" width="40.72" height="40.72" fill="#fefefe"/><polygon points="529.39,488.67 570.11,529.39 529.39,529.39" fill="#2b4fe3"/><rect x="488.67" y="529.39" width="40.72" height="40.72" fill="#fcfcfc"/><polygon points="488.67,529.39 529.39,529.39 529.39,570.11" fill="#d7defa"/><rect x="529.39" y="529.39" width="40.72" height="40.72" fill="#fefefe"/><polygon points="529.39,529.39 570.11,529.39 529.39,570.11" fill="#5f7aea"/><rect x="570.1111111111111" y="488.66666666666663" width="81.44444444444444" height="81.44444444444444" fill="#ffffff"/><rect x="570.11" y="488.67" width="40.72" height="40.72" fill="#fafafa"/><path d="M 570.11 529.39 A 40.72 40.72 0 0 1 610.83 488.67 L 610.83 498.85 A 30.54 30.54 0 0 0 580.29 529.39" fill="#fefefe"/><rect x="610.83" y="488.67" width="40.72" height="40.72" fill="#fafafa"/><path d="M 610.83 488.67 A 40.72 40.72 0 0 1 651.5500000000001 529.39 L 641.37 529.39 A 30.54 30.54 0 0 0 610.83 498.85" fill="#fefefe"/><rect x="570.11" y="529.39" width="40.72" height="40.72" fill="#fdfdfd"/><path d="M 570.11 529.39 A 40.72 40.72 0 0 0 610.83 570.11 L 610.83 559.93 A 30.54 30.54 0 0 1 580.29 529.39" fill="#3356e5"/><rect x="610.83" y="529.39" width="40.72" height="40.72" fill="#fefefe"/><path d="M 610.83 570.11 A 40.72 40.72 0 0 0 651.5500000000001 529.39 L 641.37 529.39 A 30.54 30.54 0 0 1 610.83 559.93" fill="#fbfbfb"/><rect x="651.56" y="488.67" width="81.44" height="81.44" fill="#f3f5fd"/><polygon points="651.56,488.67 733,488.67 651.56,570.11" fill="#aab9f4"/><rect x="733" y="488.67" width="81.44" height="81.44" fill="#2146e2"/><rect x="733" y="488.67" width="81.44" height="81.44" fill="#fefefe"/><rect x="814.44" y="488.67" width="81.44" height="81.44" fill="#95a7f1"/><rect x="814.44" y="488.67" width="81.44" height="81.44" fill="#4665e7"/><rect x="895.8888888888889" y="488.66666666666663" width="81.44444444444444" height="81.44444444444444" fill="#ffffff"/><rect x="895.89" y="488.67" width="40.72" height="40.72" fill="#3457e5"/><polygon points="936.61,488.67 936.61,529.39 895.89,529.39" fill="#879cef"/><rect x="936.61" y="488.67" width="40.72" height="40.72" fill="#fefefe"/><polygon points="936.61,488.67 977.33,529.39 936.61,529.39" fill="#fefefe"/><rect x="895.89" y="529.39" width="40.72" height="40.72" fill="#3457e5"/><polygon points="895.89,529.39 936.61,529.39 895.89,570.11" fill="#fefefe"/><rect x="936.61" y="529.39" width="40.72" height="40.72" fill="#fdfdfd"/><polygon points="936.61,529.39 977.33,529.39 977.33,570.11" fill="#fdfdfd"/><rect x="977.3333333333333" y="488.66666666666663" width="81.44444444444444" height="81.44444444444444" fill="#ffffff"/><rect x="977.33" y="488.67" width="40.72" height="40.72" fill="#4d6be8"/><path d="M 977.33 529.39 A 40.72 40.72 0 0 0 1018.0500000000001 488.67 L 977.33 488.67L977.33 529.39" fill="#fdfdfd"/><rect x="1018.06" y="488.67" width="40.72" height="40.72" fill="#fefefe"/><path d="M 1018.06 488.67 A 40.72 40.72 0 0 0 1058.78 529.39 L 1058.78 488.67L1018.06 488.67" fill="#fcfcfc"/><rect x="977.33" y="529.39" width="40.72" height="40.72" fill="#5b77ea"/><path d="M 977.33 529.39 A 40.72 40.72 0 0 1 1018.0500000000001 570.11 L 977.33 570.11L977.33 529.39" fill="#dce2fa"/><rect x="1018.06" y="529.39" width="40.72" height="40.72" fill="#7d93ee"/><path d="M 1018.06 570.11 A 40.72 40.72 0 0 1  1058.78 529.39 L 1058.78 570.11L1018.06 570.11" fill="#fbfbfb"/><rect x="1058.78" y="488.67" width="81.44" height="81.44" fill="#fbfbfb"/><polygon points="1058.78,488.67 1140.22,570.11 1058.78,570.11" fill="#fcfcfc"/><rect x="1140.2222222222222" y="488.66666666666663" width="81.44444444444444" height="81.44444444444444" fill="#ffffff"/><rect x="1140.22" y="488.67" width="40.72" height="40.72" fill="#294de3"/><path d="M 1140.22 488.67 A 40.72 40.72 0 0 1 1180.94 529.39 L 1140.22 529.39L1140.22 488.67" fill="#fbfbfb"/><rect x="1180.94" y="488.67" width="40.72" height="40.72" fill="#6d86ec"/><path d="M 1180.94 529.39 A 40.72 40.72 0 0 1  1221.66 488.67 L 1221.66 529.39L1180.94 529.39" fill="#1e44e2"/><rect x="1140.22" y="529.39" width="40.72" height="40.72" fill="#3456e5"/><path d="M 1140.22 570.11 A 40.72 40.72 0 0 0 1180.94 529.39 L 1140.22 529.39L1140.22 570.11" fill="#395be5"/><rect x="1180.94" y="529.39" width="40.72" height="40.72" fill="#fdfdfd"/><path d="M 1180.94 529.39 A 40.72 40.72 0 0 0 1221.66 570.11 L 1221.66 529.39L1180.94 529.39" fill="#fbfbfb"/><rect x="1221.6666666666667" y="488.66666666666663" width="81.44444444444444" height="81.44444444444444" fill="#ffffff"/><rect x="1221.67" y="488.67" width="40.72" height="40.72" fill="#fbfbfb"/><path d="M 1221.67 529.39 A 40.72 40.72 0 0 1  1262.39 488.67 L 1262.39 529.39L1221.67 529.39" fill="#5f7aea"/><rect x="1262.39" y="488.67" width="40.72" height="40.72" fill="#fefefe"/><path d="M 1262.39 488.67 A 40.72 40.72 0 0 1 1303.1100000000001 529.39 L 1262.39 529.39L1262.39 488.67" fill="#ffffff"/><rect x="1221.67" y="529.39" width="40.72" height="40.72" fill="#ffffff"/><path d="M 1221.67 529.39 A 40.72 40.72 0 0 0 1262.39 570.11 L 1262.39 529.39L1221.67 529.39" fill="#fcfcfc"/><rect x="1262.39" y="529.39" width="40.72" height="40.72" fill="#fbfbfb"/><path d="M 1262.39 570.11 A 40.72 40.72 0 0 0 1303.1100000000001 529.39 L 1262.39 529.39L1262.39 570.11" fill="#264be3"/><rect x="1303.111111111111" y="488.66666666666663" width="81.44444444444444" height="81.44444444444444" fill="#ffffff"/><rect x="1303.11" y="488.67" width="40.72" height="40.72" fill="#fefefe"/><path d="M 1303.11 529.39 A 40.72 40.72 0 0 0 1343.83 488.67 L 1303.11 488.67L1303.11 529.39" fill="#fbfbfb"/><rect x="1343.83" y="488.67" width="40.72" height="40.72" fill="#fcfcfc"/><path d="M 1343.83 488.67 A 40.72 40.72 0 0 0 1384.55 529.39 L 1384.55 488.67L1343.83 488.67" fill="#5e79ea"/><rect x="1303.11" y="529.39" width="40.72" height="40.72" fill="#ffffff"/><path d="M 1303.11 529.39 A 40.72 40.72 0 0 1 1343.83 570.11 L 1303.11 570.11L1303.11 529.39" fill="#fefefe"/><rect x="1343.83" y="529.39" width="40.72" height="40.72" fill="#ffffff"/><path d="M 1343.83 570.11 A 40.72 40.72 0 0 1  1384.55 529.39 L 1384.55 570.11L1343.83 570.11" fill="#ffffff"/><rect x="1384.5555555555554" y="488.66666666666663" width="81.44444444444444" height="81.44444444444444" fill="#ffffff"/><rect x="1384.56" y="488.67" width="40.72" height="40.72" fill="#dde2fb"/><polygon points="1425.28,488.67 1425.28,529.39 1384.56,529.39" fill="#fefefe"/><rect x="1425.28" y="488.67" width="40.72" height="40.72" fill="#fbfbfb"/><polygon points="1425.28,488.67 1466,488.67 1425.28,529.39" fill="#d0d8f9"/><rect x="1384.56" y="529.39" width="40.72" height="40.72" fill="#e8ecfc"/><polygon points="1384.56,529.39 1425.28,529.39 1425.28,570.11" fill="#a5b4f3"/><rect x="1425.28" y="529.39" width="40.72" height="40.72" fill="#fefefe"/><polygon points="1425.28,529.39 1466,570.11 1425.28,570.11" fill="#395ae5"/><rect x="0" y="570.1111111111111" width="81.44444444444444" height="81.44444444444444" fill="#ffffff"/><rect x="0" y="570.11" width="40.72" height="40.72" fill="#fcfcfc"/><path d="M 0 610.83 A 40.72 40.72 0 0 1  40.72 570.11 L 40.72 610.83L0 610.83" fill="#fbfbfb"/><rect x="40.72" y="570.11" width="40.72" height="40.72" fill="#fefefe"/><path d="M 40.72 570.11 A 40.72 40.72 0 0 1 81.44 610.83 L 40.72 610.83L40.72 570.11" fill="#fcfcfc"/><rect x="0" y="610.83" width="40.72" height="40.72" fill="#899df0"/><path d="M 0 610.83 A 40.72 40.72 0 0 0 40.72 651.5500000000001 L 40.72 610.83L0 610.83" fill="#6781eb"/><rect x="40.72" y="610.83" width="40.72" height="40.72" fill="#c7d0f8"/><path d="M 40.72 651.5500000000001 A 40.72 40.72 0 0 0 81.44 610.83 L 40.72 610.83L40.72 651.5500000000001" fill="#f5f6fe"/><rect x="81.44444444444444" y="570.1111111111111" width="81.44444444444444" height="81.44444444444444" fill="#ffffff"/><rect x="81.44" y="570.11" width="40.72" height="40.72" fill="#4c6ae8"/><path d="M 81.44 610.83 A 40.72 40.72 0 0 0 122.16 570.11 L 81.44 570.11L81.44 610.83" fill="#d9dffa"/><rect x="122.17" y="570.11" width="40.72" height="40.72" fill="#eff2fd"/><path d="M 122.17 570.11 A 40.72 40.72 0 0 0 162.89 610.83 L 162.89 570.11L122.17 570.11" fill="#2b4fe3"/><rect x="81.44" y="610.83" width="40.72" height="40.72" fill="#91a4f1"/><path d="M 81.44 610.83 A 40.72 40.72 0 0 1 122.16 651.5500000000001 L 81.44 651.5500000000001L81.44 610.83" fill="#fcfcfc"/><rect x="122.17" y="610.83" width="40.72" height="40.72" fill="#fefefe"/><path d="M 122.17 651.5500000000001 A 40.72 40.72 0 0 1  162.89 610.83 L 162.89 651.5500000000001L122.17 651.5500000000001" fill="#aebcf4"/><rect x="162.89" y="570.11" width="81.44" height="81.44" fill="#d9dffa"/><path d="M 162.89 651.55 A 81.44 81.44 0 0 0 244.32999999999998 570.11 L 162.89 570.11L162.89 651.55" fill="#fcfcfc"/><rect x="244.33" y="570.11" width="81.44" height="81.44" fill="#ffffff"/><polygon points="325.77,570.11 325.77,651.55 244.33,651.55" fill="#3154e4"/><rect x="325.77777777777777" y="570.1111111111111" width="81.44444444444444" height="81.44444444444444" fill="#ffffff"/><rect x="325.78" y="570.11" width="40.72" height="40.72" fill="#a8b7f4"/><path d="M 325.78 570.11 A 40.72 40.72 0 0 1 366.5 610.83 L 325.78 610.83L325.78 570.11" fill="#fefefe"/><rect x="366.5" y="570.11" width="40.72" height="40.72" fill="#fdfdfd"/><path d="M 366.5 610.83 A 40.72 40.72 0 0 1  407.22 570.11 L 407.22 610.83L366.5 610.83" fill="#97a9f2"/><rect x="325.78" y="610.83" width="40.72" height="40.72" fill="#fbfbfb"/><path d="M 325.78 651.5500000000001 A 40.72 40.72 0 0 0 366.5 610.83 L 325.78 610.83L325.78 651.5500000000001" fill="#fdfdfd"/><rect x="366.5" y="610.83" width="40.72" height="40.72" fill="#4262e6"/><path d="M 366.5 610.83 A 40.72 40.72 0 0 0 407.22 651.5500000000001 L 407.22 610.83L366.5 610.83" fill="#fcfcfc"/><rect x="407.22222222222223" y="570.1111111111111" width="81.44444444444444" height="81.44444444444444" fill="#ffffff"/><rect x="407.22" y="570.11" width="40.72" height="40.72" fill="#5874e9"/><path d="M 407.22 610.83 A 40.72 40.72 0 0 0 447.94000000000005 570.11 L 407.22 570.11L407.22 610.83" fill="#fdfdfd"/><rect x="447.94" y="570.11" width="40.72" height="40.72" fill="#5774e9"/><path d="M 447.94 570.11 A 40.72 40.72 0 0 0 488.65999999999997 610.83 L 488.65999999999997 570.11L447.94 570.11" fill="#ffffff"/><rect x="407.22" y="610.83" width="40.72" height="40.72" fill="#fbfbfb"/><path d="M 407.22 610.83 A 40.72 40.72 0 0 1 447.94000000000005 651.5500000000001 L 407.22 651.5500000000001L407.22 610.83" fill="#fefefe"/><rect x="447.94" y="610.83" width="40.72" height="40.72" fill="#fcfcfc"/><path d="M 447.94 651.5500000000001 A 40.72 40.72 0 0 1  488.65999999999997 610.83 L 488.65999999999997 651.5500000000001L447.94 651.5500000000001" fill="#183fe1"/><rect x="488.66666666666663" y="570.1111111111111" width="81.44444444444444" height="81.44444444444444" fill="#ffffff"/><rect x="488.67" y="570.11" width="40.72" height="40.72" fill="#7189ed"/><path d="M 488.67 570.11 A 40.72 40.72 0 0 0 529.39 610.83 L 529.39 570.11L488.67 570.11" fill="#fafbfe"/><rect x="529.39" y="570.11" width="40.72" height="40.72" fill="#fdfdfd"/><path d="M 529.39 610.83 A 40.72 40.72 0 0 0 570.11 570.11 L 529.39 570.11L529.39 610.83" fill="#fefefe"/><rect x="488.67" y="610.83" width="40.72" height="40.72" fill="#bec9f7"/><path d="M 488.67 651.5500000000001 A 40.72 40.72 0 0 1  529.39 610.83 L 529.39 651.5500000000001L488.67 651.5500000000001" fill="#fbfbfb"/><rect x="529.39" y="610.83" width="40.72" height="40.72" fill="#cbd3f8"/><path d="M 529.39 610.83 A 40.72 40.72 0 0 1 570.11 651.5500000000001 L 529.39 651.5500000000001L529.39 610.83" fill="#1e44e2"/><rect x="570.11" y="570.11" width="81.44" height="81.44" fill="#fcfcfc"/><polygon points="570.11,570.11 651.55,570.11 651.55,651.55" fill="#fbfbfb"/><rect x="651.56" y="570.11" width="81.44" height="81.44" fill="#fcfcfc"/><path d="M 651.56 570.11 A 81.44 81.44 0 0 1  733 651.55 L 651.56 570.11 A 81.44 81.44 0 0 0 733 651.55" fill="#395ae5"/><rect x="733" y="570.11" width="81.44" height="81.44" fill="#fafafa"/><path d="M 733 570.11 A 81.44 81.44 0 0 1  814.44 651.55 L 733 570.11 A 81.44 81.44 0 0 0 814.44 651.55" fill="#fdfdfd"/><rect x="814.4444444444445" y="570.1111111111111" width="81.44444444444444" height="81.44444444444444" fill="#ffffff"/><rect x="814.44" y="570.11" width="40.72" height="40.72" fill="#dae0fa"/><circle cx="834.8000000000001" cy="590.47" r="20.36" fill="#395ae5"/><rect x="855.17" y="570.11" width="40.72" height="40.72" fill="#ffffff"/><rect x="855.17" y="570.11" width="40.72" height="40.72" fill="#8095ee"/><rect x="814.44" y="610.83" width="40.72" height="40.72" fill="#b2bff5"/><circle cx="834.8000000000001" cy="631.19" r="20.36" fill="#fafafa"/><rect x="855.17" y="610.83" width="40.72" height="40.72" fill="#fefefe"/><rect x="855.17" y="610.83" width="40.72" height="40.72" fill="#fbfbfb"/><rect x="895.8888888888889" y="570.1111111111111" width="81.44444444444444" height="81.44444444444444" fill="#ffffff"/><rect x="895.89" y="570.11" width="40.72" height="40.72" fill="#fdfdfd"/><path d="M 895.89 610.83 A 40.72 40.72 0 0 0 936.61 570.11 L 895.89 570.11L895.89 610.83" fill="#fdfdfd"/><rect x="936.61" y="570.11" width="40.72" height="40.72" fill="#fbfbfb"/><path d="M 936.61 570.11 A 40.72 40.72 0 0 0 977.33 610.83 L 977.33 570.11L936.61 570.11" fill="#5471e9"/><rect x="895.89" y="610.83" width="40.72" height="40.72" fill="#2b4fe3"/><path d="M 895.89 610.83 A 40.72 40.72 0 0 1 936.61 651.5500000000001 L 895.89 651.5500000000001L895.89 610.83" fill="#3c5de6"/><rect x="936.61" y="610.83" width="40.72" height="40.72" fill="#e7ebfc"/><path d="M 936.61 651.5500000000001 A 40.72 40.72 0 0 1  977.33 610.83 L 977.33 651.5500000000001L936.61 651.5500000000001" fill="#b5c2f5"/><rect x="977.3333333333333" y="570.1111111111111" width="81.44444444444444" height="81.44444444444444" fill="#ffffff"/><rect x="977.33" y="570.11" width="40.72" height="40.72" fill="#bcc8f6"/><polygon points="1018.0500000000001,570.11 1018.0500000000001,610.83 977.33,610.83" fill="#fafafa"/><rect x="1018.06" y="570.11" width="40.72" height="40.72" fill="#fefefe"/><polygon points="1018.06,570.11 1058.78,570.11 1018.06,610.83" fill="#fdfdfd"/><rect x="977.33" y="610.83" width="40.72" height="40.72" fill="#8096ef"/><polygon points="977.33,610.83 1018.0500000000001,610.83 1018.0500000000001,651.5500000000001" fill="#fefefe"/><rect x="1018.06" y="610.83" width="40.72" height="40.72" fill="#5975e9"/><polygon points="1018.06,610.83 1058.78,651.5500000000001 1018.06,651.5500000000001" fill="#fbfbfb"/><rect x="1058.78" y="570.11" width="81.44" height="81.44" fill="#1b42e1"/><polygon points="1058.78,570.11 1140.22,570.11 1140.22,651.55" fill="#fafbfe"/><rect x="1140.2222222222222" y="570.1111111111111" width="81.44444444444444" height="81.44444444444444" fill="#ffffff"/><rect x="1140.22" y="570.11" width="40.72" height="40.72" fill="#b0bdf5"/><polygon points="1180.94,570.11 1180.94,610.83 1140.22,610.83" fill="#183fe1"/><rect x="1180.94" y="570.11" width="40.72" height="40.72" fill="#637eeb"/><polygon points="1180.94,570.11 1221.66,610.83 1180.94,610.83" fill="#fcfcfc"/><rect x="1140.22" y="610.83" width="40.72" height="40.72" fill="#fafafa"/><polygon points="1140.22,610.83 1180.94,610.83 1180.94,651.5500000000001" fill="#fcfcfc"/><rect x="1180.94" y="610.83" width="40.72" height="40.72" fill="#fdfdfd"/><polygon points="1180.94,610.83 1221.66,610.83 1180.94,651.5500000000001" fill="#b3c0f5"/><rect x="1221.67" y="570.11" width="81.44" height="81.44" fill="#bcc7f6"/><rect x="1221.67" y="570.11" width="81.44" height="81.44" fill="#254ae3"/><rect x="1303.111111111111" y="570.1111111111111" width="81.44444444444444" height="81.44444444444444" fill="#ffffff"/><rect x="1303.11" y="570.11" width="40.72" height="40.72" fill="#748bed"/><polygon points="1343.83,570.11 1343.83,610.83 1303.11,610.83" fill="#fafafa"/><rect x="1343.83" y="570.11" width="40.72" height="40.72" fill="#97a9f2"/><polygon points="1343.83,570.11 1384.55,610.83 1343.83,610.83" fill="#6680eb"/><rect x="1303.11" y="610.83" width="40.72" height="40.72" fill="#fefefe"/><polygon points="1303.11,610.83 1343.83,610.83 1303.11,651.5500000000001" fill="#e8ecfc"/><rect x="1343.83" y="610.83" width="40.72" height="40.72" fill="#768ded"/><polygon points="1343.83,610.83 1384.55,610.83 1384.55,651.5500000000001" fill="#8398ef"/><rect x="1384.56" y="570.11" width="81.44" height="81.44" fill="#264be3"/><polygon points="1384.56,570.11 1466,651.55 1384.56,651.55" fill="#3355e4"/><rect x="0" y="651.56" width="81.44" height="81.44" fill="#fafafa"/><rect x="0" y="651.56" width="81.44" height="81.44" fill="#fbfbfb"/><rect x="81.44444444444444" y="651.5555555555555" width="81.44444444444444" height="81.44444444444444" fill="#ffffff"/><rect x="81.44" y="651.56" width="40.72" height="40.72" fill="#4766e7"/><polygon points="122.16,651.56 122.16,692.28 81.44,692.28" fill="#2549e3"/><rect x="122.17" y="651.56" width="40.72" height="40.72" fill="#7b92ee"/><polygon points="122.17,651.56 162.89,692.28 122.17,692.28" fill="#fbfbfb"/><rect x="81.44" y="692.28" width="40.72" height="40.72" fill="#fafafa"/><polygon points="81.44,692.28 122.16,692.28 122.16,733" fill="#eaeefc"/><rect x="122.17" y="692.28" width="40.72" height="40.72" fill="#fefefe"/><polygon points="122.17,692.28 162.89,692.28 122.17,733" fill="#fdfdfd"/><rect x="162.88888888888889" y="651.5555555555555" width="81.44444444444444" height="81.44444444444444" fill="#ffffff"/><rect x="162.89" y="651.56" width="40.72" height="40.72" fill="#c5cff7"/><path d="M 162.89 692.28 A 40.72 40.72 0 0 1  203.60999999999999 651.56 L 203.60999999999999 692.28L162.89 692.28" fill="#778eed"/><rect x="203.61" y="651.56" width="40.72" height="40.72" fill="#90a3f1"/><path d="M 203.61 651.56 A 40.72 40.72 0 0 1 244.33 692.28 L 203.61 692.28L203.61 651.56" fill="#fbfbfb"/><rect x="162.89" y="692.28" width="40.72" height="40.72" fill="#fcfcfc"/><path d="M 162.89 692.28 A 40.72 40.72 0 0 0 203.60999999999999 733 L 203.60999999999999 692.28L162.89 692.28" fill="#627ceb"/><rect x="203.61" y="692.28" width="40.72" height="40.72" fill="#dae0fa"/><path d="M 203.61 733 A 40.72 40.72 0 0 0 244.33 692.28 L 203.61 692.28L203.61 733" fill="#fefefe"/><rect x="244.33333333333331" y="651.5555555555555" width="81.44444444444444" height="81.44444444444444" fill="#ffffff"/><rect x="244.33" y="651.56" width="40.72" height="40.72" fill="#fefefe"/><path d="M 244.33 651.56 A 40.72 40.72 0 0 0 285.05 692.28 L 285.05 651.56L244.33 651.56" fill="#bec9f7"/><rect x="285.06" y="651.56" width="40.72" height="40.72" fill="#6b84ec"/><path d="M 285.06 692.28 A 40.72 40.72 0 0 0 325.78 651.56 L 285.06 651.56L285.06 692.28" fill="#b0bef5"/><rect x="244.33" y="692.28" width="40.72" height="40.72" fill="#395be5"/><path d="M 244.33 733 A 40.72 40.72 0 0 1  285.05 692.28 L 285.05 733L244.33 733" fill="#fdfdfd"/><rect x="285.06" y="692.28" width="40.72" height="40.72" fill="#395ae5"/><path d="M 285.06 692.28 A 40.72 40.72 0 0 1 325.78 733 L 285.06 733L285.06 692.28" fill="#bcc8f6"/><rect x="325.77777777777777" y="651.5555555555555" width="81.44444444444444" height="81.44444444444444" fill="#ffffff"/><rect x="325.78" y="651.56" width="40.72" height="40.72" fill="#fcfcfc"/><circle cx="346.14" cy="671.92" r="20.36" fill="#a6b5f3"/><rect x="366.5" y="651.56" width="40.72" height="40.72" fill="#fafafa"/><rect x="366.5" y="651.56" width="40.72" height="40.72" fill="#758ded"/><rect x="325.78" y="692.28" width="40.72" height="40.72" fill="#fefefe"/><circle cx="346.14" cy="712.64" r="20.36" fill="#fafafa"/><rect x="366.5" y="692.28" width="40.72" height="40.72" fill="#6781eb"/><rect x="366.5" y="692.28" width="40.72" height="40.72" fill="#fdfdfd"/><rect x="407.22222222222223" y="651.5555555555555" width="81.44444444444444" height="81.44444444444444" fill="#ffffff"/><rect x="407.22" y="651.56" width="40.72" height="40.72" fill="#fcfcfc"/><circle cx="427.58000000000004" cy="671.92" r="20.36" fill="#bdc8f6"/><rect x="447.94" y="651.56" width="40.72" height="40.72" fill="#fcfdff"/><rect x="447.94" y="651.56" width="40.72" height="40.72" fill="#fbfbfb"/><rect x="407.22" y="692.28" width="40.72" height="40.72" fill="#9cacf2"/><circle cx="427.58000000000004" cy="712.64" r="20.36" fill="#fefefe"/><rect x="447.94" y="692.28" width="40.72" height="40.72" fill="#d3daf9"/><rect x="447.94" y="692.28" width="40.72" height="40.72" fill="#fefefe"/><rect x="488.66666666666663" y="651.5555555555555" width="81.44444444444444" height="81.44444444444444" fill="#ffffff"/><rect x="488.67" y="651.56" width="40.72" height="40.72" fill="#fcfcfc"/><path d="M 488.67 692.28 A 40.72 40.72 0 0 0 529.39 651.56 L 488.67 651.56L488.67 692.28" fill="#e1e6fb"/><rect x="529.39" y="651.56" width="40.72" height="40.72" fill="#fefefe"/><path d="M 529.39 651.56 A 40.72 40.72 0 0 0 570.11 692.28 L 570.11 651.56L529.39 651.56" fill="#dbe1fa"/><rect x="488.67" y="692.28" width="40.72" height="40.72" fill="#5874e9"/><path d="M 488.67 692.28 A 40.72 40.72 0 0 1 529.39 733 L 488.67 733L488.67 692.28" fill="#eaeefc"/><rect x="529.39" y="692.28" width="40.72" height="40.72" fill="#fbfbfb"/><path d="M 529.39 733 A 40.72 40.72 0 0 1  570.11 692.28 L 570.11 733L529.39 733" fill="#fcfcfc"/><rect x="570.11" y="651.56" width="81.44" height="81.44" fill="#4262e6"/><polygon points="570.11,651.56 651.55,651.56 651.55,733" fill="#eceffc"/><rect x="651.5555555555555" y="651.5555555555555" width="81.44444444444444" height="81.44444444444444" fill="#ffffff"/><rect x="651.56" y="651.56" width="40.72" height="40.72" fill="#c0cbf7"/><path d="M 651.56 651.56 A 40.72 40.72 0 0 0 692.28 692.28 L 692.28 651.56L651.56 651.56" fill="#fefefe"/><rect x="692.28" y="651.56" width="40.72" height="40.72" fill="#4867e7"/><path d="M 692.28 692.28 A 40.72 40.72 0 0 0 733 651.56 L 692.28 651.56L692.28 692.28" fill="#94a6f1"/><rect x="651.56" y="692.28" width="40.72" height="40.72" fill="#5874e9"/><path d="M 651.56 733 A 40.72 40.72 0 0 1  692.28 692.28 L 692.28 733L651.56 733" fill="#a2b1f3"/><rect x="692.28" y="692.28" width="40.72" height="40.72" fill="#c5cff8"/><path d="M 692.28 692.28 A 40.72 40.72 0 0 1 733 733 L 692.28 733L692.28 692.28" fill="#fdfdfd"/><rect x="733" y="651.5555555555555" width="81.44444444444444" height="81.44444444444444" fill="#ffffff"/><rect x="733" y="651.56" width="40.72" height="40.72" fill="#cfd7f9"/><path d="M 733 651.56 A 40.72 40.72 0 0 0 773.72 692.28 L 773.72 651.56L733 651.56" fill="#c7d0f8"/><rect x="773.72" y="651.56" width="40.72" height="40.72" fill="#fdfdfd"/><path d="M 773.72 692.28 A 40.72 40.72 0 0 0 814.44 651.56 L 773.72 651.56L773.72 692.28" fill="#9bacf2"/><rect x="733" y="692.28" width="40.72" height="40.72" fill="#fcfcfc"/><path d="M 733 733 A 40.72 40.72 0 0 1  773.72 692.28 L 773.72 733L733 733" fill="#3457e5"/><rect x="773.72" y="692.28" width="40.72" height="40.72" fill="#f3f5fd"/><path d="M 773.72 692.28 A 40.72 40.72 0 0 1 814.44 733 L 773.72 733L773.72 692.28" fill="#fbfbfb"/><rect x="814.4444444444445" y="651.5555555555555" width="81.44444444444444" height="81.44444444444444" fill="#ffffff"/><rect x="814.44" y="651.56" width="40.72" height="40.72" fill="#fbfbfb"/><polygon points="855.1600000000001,651.56 855.1600000000001,692.28 814.44,692.28" fill="#fdfdfd"/><rect x="855.17" y="651.56" width="40.72" height="40.72" fill="#fafbfe"/><polygon points="855.17,651.56 895.89,651.56 855.17,692.28" fill="#a9b7f4"/><rect x="814.44" y="692.28" width="40.72" height="40.72" fill="#dbe1fa"/><polygon points="814.44,692.28 855.1600000000001,692.28 855.1600000000001,733" fill="#fcfcfc"/><rect x="855.17" y="692.28" width="40.72" height="40.72" fill="#fbfbfb"/><polygon points="855.17,692.28 895.89,733 855.17,733" fill="#fbfbfb"/><rect x="895.8888888888889" y="651.5555555555555" width="81.44444444444444" height="81.44444444444444" fill="#ffffff"/><rect x="895.89" y="651.56" width="40.72" height="40.72" fill="#fbfbfb"/><circle cx="916.25" cy="671.92" r="20.36" fill="#fefefe"/><rect x="936.61" y="651.56" width="40.72" height="40.72" fill="#9faff3"/><rect x="936.61" y="651.56" width="40.72" height="40.72" fill="#fafafa"/><rect x="895.89" y="692.28" width="40.72" height="40.72" fill="#fdfdfd"/><circle cx="916.25" cy="712.64" r="20.36" fill="#fbfbfb"/><rect x="936.61" y="692.28" width="40.72" height="40.72" fill="#fcfcfc"/><rect x="936.61" y="692.28" width="40.72" height="40.72" fill="#bec9f7"/><rect x="977.33" y="651.56" width="81.44" height="81.44" fill="#fefefe"/><path d="M 977.33 651.56 A 81.44 81.44 0 0 1 1058.77 733 L 977.33 733L977.33 651.56" fill="#afbdf5"/><rect x="1058.78" y="651.56" width="81.44" height="81.44" fill="#4f6de8"/><path d="M 1058.78 733 A 81.44 81.44 0 0 0 1140.22 651.56 L 1058.78 651.56L1058.78 733" fill="#fefefe"/><rect x="1140.22" y="651.56" width="81.44" height="81.44" fill="#3356e5"/><polygon points="1140.22,651.56 1221.66,651.56 1140.22,733" fill="#5d78ea"/><rect x="1221.6666666666667" y="651.5555555555555" width="81.44444444444444" height="81.44444444444444" fill="#ffffff"/><rect x="1221.67" y="651.56" width="40.72" height="40.72" fill="#728aed"/><polygon points="1262.39,651.56 1262.39,692.28 1221.67,692.28" fill="#fafafa"/><rect x="1262.39" y="651.56" width="40.72" height="40.72" fill="#fcfcfc"/><polygon points="1262.39,651.56 1303.1100000000001,651.56 1262.39,692.28" fill="#eaeefc"/><rect x="1221.67" y="692.28" width="40.72" height="40.72" fill="#fcfcfc"/><polygon points="1221.67,692.28 1262.39,692.28 1262.39,733" fill="#7990ee"/><rect x="1262.39" y="692.28" width="40.72" height="40.72" fill="#91a3f1"/><polygon points="1262.39,692.28 1303.1100000000001,733 1262.39,733" fill="#fafafa"/><rect x="1303.11" y="651.56" width="81.44" height="81.44" fill="#fefefe"/><rect x="1303.11" y="651.56" width="81.44" height="81.44" fill="#fcfcfc"/><rect x="1384.56" y="651.56" width="81.44" height="81.44" fill="#fefefe"/><rect x="1384.56" y="651.56" width="81.44" height="81.44" fill="#fefefe"/></g></svg>